<svg aria-hidden="true" style="position:absolute; overflow:hidden;" xmlns="http://www.w3.org/2000/svg">
  <defs>
    <symbol id="IconEdit2" viewBox="0 0 32 32">
      <path stroke-linejoin="round" stroke-linecap="round" stroke-width="3.6" d="M22.666 4a3.766 3.766 0 0 1 4.109-.817 3.781 3.781 0 0 1 2.041 2.04 3.764 3.764 0 0 1 0 2.886 3.756 3.756 0 0 1-.817 1.223l-18 18-7.333 2 2-7.333 18-18z"/>
    </symbol>
    <symbol id="IconEye" viewBox="0 0 32 32">
      <path stroke-linejoin="round" stroke-linecap="round" stroke-width="2.88" d="M1.333 16S6.666 5.333 16 5.333 30.667 16 30.667 16 25.334 26.667 16 26.667 1.333 16 1.333 16z"/>
      <path stroke-linejoin="round" stroke-linecap="round" stroke-width="2.88" d="M16 20a4 4 0 1 0 0-8 4 4 0 0 0 0 8z"/>
    </symbol>
    <symbol id="IconEye-off" viewBox="0 0 32 32">
      <path stroke-linejoin="round" stroke-linecap="round" stroke-width="2.88" d="M23.92 23.92A13.43 13.43 0 0 1 16 26.667C6.667 26.667 1.333 16 1.333 16A24.605 24.605 0 0 1 8.08 8.08m5.12-2.427a12.161 12.161 0 0 1 2.8-.32C25.333 5.333 30.667 16 30.667 16a24.646 24.646 0 0 1-2.88 4.253m-8.961-1.426a4.01 4.01 0 0 1-2.855 1.273 3.978 3.978 0 0 1-1.569-.291 3.984 3.984 0 0 1-2.21-2.21 3.995 3.995 0 0 1 .983-4.424M1.333 1.333l29.333 29.333"/>
    </symbol>
    <symbol id="IconLogOut" viewBox="0 0 32 32">
      <path stroke-linejoin="round" stroke-linecap="round" stroke-width="3" d="M12 28H6.667A2.668 2.668 0 0 1 4 25.333V6.666a2.668 2.668 0 0 1 2.667-2.667H12M21.334 22.667 28.001 16l-6.667-6.667M28 16H12"/>
    </symbol>
    <symbol id="IconPieChart02" viewBox="0 0 32 32">
      <path fill="none"  stroke-linejoin="round" stroke-linecap="round" stroke-width="2.667" d="M22.933 18.667c.369 0 .554 0 .704.082a.713.713 0 0 1 .293.324c.067.157.05.324.016.659a10.665 10.665 0 0 1-12.694 9.397c-2.069-.412-3.97-1.428-5.462-2.919s-2.508-3.392-2.919-5.461a10.666 10.666 0 0 1 9.397-12.694c.334-.034.502-.05.659.016.13.055.257.17.324.293.082.15.082.334.082.704v8.533c0 .373 0 .56.073.703a.67.67 0 0 0 .291.291c.143.073.329.073.703.073h8.533z"/>
      <path fill="none" stroke="#9be1a0" style="stroke:var(--color2, #9be1a0)" stroke-linejoin="round" stroke-linecap="round" stroke-width="2.667" d="M18.667 3.733c0-.369 0-.554.082-.704a.713.713 0 0 1 .324-.293c.157-.067.324-.05.659-.016a10.67 10.67 0 0 1 9.549 9.549c.033.334.05.502-.016.659a.704.704 0 0 1-.293.324c-.15.082-.334.082-.704.082h-8.533c-.373 0-.56 0-.703-.073a.67.67 0 0 1-.291-.291c-.073-.143-.073-.329-.073-.703V3.734z"/>
    </symbol>
    <symbol id="IconSettings" viewBox="0 0 32 32">
      <path stroke-linejoin="round" stroke-linecap="round" stroke-width="3" d="M16 20a4 4 0 1 0 0-8 4 4 0 0 0 0 8z"/>
      <path stroke-linejoin="round" stroke-linecap="round" stroke-width="3" d="M25.867 20a2.205 2.205 0 0 0 .44 2.427l.08.08a2.672 2.672 0 0 1 .782 1.886 2.672 2.672 0 0 1-1.648 2.465 2.672 2.672 0 0 1-2.907-.579l-.08-.08a2.197 2.197 0 0 0-2.427-.44 2.2 2.2 0 0 0-1.334 2.013v.227a2.668 2.668 0 0 1-5.334 0v-.12a2.196 2.196 0 0 0-1.44-2.013 2.205 2.205 0 0 0-2.427.44l-.08.08a2.672 2.672 0 0 1-1.886.782 2.672 2.672 0 0 1-2.465-1.648 2.672 2.672 0 0 1 .579-2.907l.08-.08a2.197 2.197 0 0 0 .44-2.427 2.2 2.2 0 0 0-2.013-1.334H4a2.668 2.668 0 0 1 0-5.334h.12a2.196 2.196 0 0 0 2.013-1.44 2.2 2.2 0 0 0-.44-2.427l-.08-.08a2.666 2.666 0 0 1 .865-4.352 2.668 2.668 0 0 1 2.908.579l.08.08a2.197 2.197 0 0 0 2.427.44H12a2.2 2.2 0 0 0 1.334-2.013v-.227a2.668 2.668 0 0 1 5.334 0v.12a2.203 2.203 0 0 0 1.334 2.013 2.208 2.208 0 0 0 2.427-.44l.08-.08a2.672 2.672 0 0 1 1.886-.782 2.672 2.672 0 0 1 2.465 1.647 2.668 2.668 0 0 1-.579 2.907l-.08.08a2.197 2.197 0 0 0-.44 2.427v.107a2.2 2.2 0 0 0 2.013 1.334h.227a2.668 2.668 0 0 1 0 5.334h-.12a2.203 2.203 0 0 0-2.013 1.334z"/>
    </symbol>
    <symbol id="IconTrash04" viewBox="0 0 32 32">
      <path stroke-linejoin="round" stroke-linecap="round" stroke-width="3" d="M12 4h8"/>
      <path stroke-linejoin="round" stroke-linecap="round" stroke-width="3.6" d="M4 8h24m-2.667 0-.935 14.026c-.14 2.104-.21 3.156-.665 3.954a4.007 4.007 0 0 1-1.731 1.62c-.826.4-1.881.4-3.99.4h-4.025c-2.109 0-3.163 0-3.99-.4a4.001 4.001 0 0 1-1.731-1.62c-.455-.798-.525-1.85-.665-3.954L6.666 8"/>
    </symbol>
    <symbol id="IconUpload" viewBox="0 0 32 32">
      <path stroke-linejoin="round" stroke-linecap="round" stroke-width="2.88" d="M28 20v5.333A2.668 2.668 0 0 1 25.333 28H6.666a2.668 2.668 0 0 1-2.667-2.667V20M22.666 10.667 15.999 4l-6.667 6.667M16 4v16"/>
    </symbol>
    <symbol id="IconX" viewBox="0 0 32 32">
      <path stroke-linejoin="round" stroke-linecap="round" stroke-width="3.429" d="M24 8 8 24M8 8l16 16"/>
    </symbol>
  </defs>
</svg>
